<svg version="1" xmlns="http://www.w3.org/2000/svg" width="341.333" height="341.333" viewBox="0 0 256.000000 256.000000"><path d="M124.2 4.2c-.7.7-1.7 1.4-2.2 1.4-.6.1-1.5.2-2.1.3-.5 0-.7.6-.3 1.3.4.7.3.8-.5.4-1.7-1.1-10.4 4.8-14.3 9.7-4.2 5.3-8 11.3-9.9 15.4-.7 1.8-1.6 3.3-1.9 3.3-.3 0-2.9-.9-5.8-1.9-2.9-1.1-5.5-1.9-5.7-1.9-.3 0-2.4-.4-4.8-.8-6.2-1.1-12.8-1.1-16.2-.1-1.6.5-3.7 1-4.5 1.1-3.3.7-6 1.9-6 2.7 0 .5-.6.9-1.2.9-2.1.1-7.4 5.5-10.3 10.4-3.7 6.2-5.6 16.6-4.5 24.2.4 3.3.6 6.2.4 6.6-.3.4 0 .9.6 1.3.5.3 1 1.7 1 3s.5 2.7 1 3c1.5.9 1.2 6.1-.5 7.5-.8.7-1.5.9-1.5.4s-.4-.4-.8.1c-.4.6-2 1.7-3.6 2.5-7 3.6-17.7 14.2-20.7 20.5-2.8 6-3.4 9.5-1.7 9.5.6 0 .3.7-.8 1.5-1.4 1.1-1.5 1.4-.4 1.5 1.3 0 1.3.1 0 1.1-1 .7-1.1 1.2-.4 1.5.7.3.9 1.4.6 2.6-.3 1.4-.1 1.9.6 1.4.8-.4 1-.2.6.8-.3.8-.2 2.1.2 2.8.5.7.9 1.5 1 1.8.2 1.3 1.9 4.6 2.8 5.7.6.6 2.2 2.8 3.6 4.7 1.4 2 2.9 3.6 3.4 3.6s1.4.7 2 1.5c.6.8 4.7 3.6 9.2 6.3 5.2 3.1 7.9 5.3 7.6 6.2-.2.8-.6 2.2-.8 3-.3.8-.5 1.6-.5 1.7 0 .2-.5 1.7-1 3.5-2.1 6.8-2.8 18.3-1.6 25.1 1.5 8.4 8.2 17 16.7 21.7 4 2.2 5.6 2.5 15.5 2.5 6.1-.1 12.1-.3 13.5-.6 7.1-1.7 8.7-2.1 10.7-3.1 1.3-.6 2.4-.9 2.6-.7 1.6 2 4.7 7.9 4.2 7.9-.3 0 0 .7.7 1.5 2.7 3 3.8 4.4 3.8 5 0 .4.7 1.3 1.5 2.1s2 2.3 2.7 3.2c1.8 2.4 10.8 9.6 10.8 8.7 0-.5 1 0 2.2 1.1 1.3 1.2 1.8 1.3 1.3.4-.8-1.3-.6-1.3.8-.2.9.8 2.1 1.1 2.7.7.5-.3 1-.1 1 .5 0 1.4 11 1.1 12.9-.4.8-.6 1.5-.9 1.5-.7.4 1.7 12.2-5.2 16-9.3 2.8-3.1 12.6-18.2 12.6-19.5 0-1.4.6-1.4 5.7.4 10.6 3.7 24.7 4.5 32.9 1.9 6.3-2 15.2-9.6 17.5-15.2.8-1.7 1.7-3.2 2-3.2 2.7 0 2.4-28-.2-29.6-.5-.3-.9-1.6-.9-3 0-1.3-.5-3.3-1.2-4.3-1-1.7-.8-2.3 1.3-4 1.3-1.1 2.7-2 3.1-2.1.4 0 3.2-1.6 6.3-3.5 8.1-5.3 16.6-14.1 17.2-18 .2-1 .7-2.2 1.1-2.5.4-.3.8-1 .9-1.6.1-.6.4-2.3.7-3.8.2-1.4.7-3 1-3.5.4-.5 0-1.2-.6-1.4-1-.4-1-.6 0-.6.9-.1 1-.6.3-2-.6-1-.8-2.1-.5-2.4.3-.3.2-1.2-.2-1.9-.5-.7-1-2.1-1.1-3.2-.2-1-1.2-3.1-2.3-4.6-1.1-1.6-2-3.2-2-3.7 0-1.8-7.8-8.8-15-13.5-4.1-2.6-8-5.2-8.6-5.7-.7-.6-1.5-.7-1.9-.3-.5.4-.5-.2-.2-1.3s1.3-4.9 2.3-8.5c.9-3.6 1.9-7.2 2.3-8 .9-2 .7-13.7-.3-17.5-2.4-9.7-9.4-18.1-18.3-22.2-4.3-2-7.3-2.5-14.6-2.8-5.1-.1-9.4.1-9.7.6-.3.4-2.2.9-4.3 1.1-2 .1-3.7.5-3.7.9s-1.2.9-2.7 1.1c-1.6.3-3.5.8-4.4 1.2-1.2.5-2.3-.6-4.4-4.8-1.6-3.1-3.2-5.6-3.7-5.6-.4 0-.8-.6-.8-1.4 0-.7-1.6-3.1-3.5-5.2-1.9-2.2-3.8-4.4-4.3-4.9-2.1-2.3-6.9-5.6-8.9-6.1C143 7 142 6.3 142 5.8c0-.6-1.2-.8-2.6-.5-1.6.3-2.8 0-3.1-.9-.4-1.1-.9-1.2-1.8-.4-.9.8-1.4.7-1.8-.2-.4-1-.6-1-.6.1-.1 1.1-.4 1.1-1.6.1-.8-.7-1.5-.8-1.5-.3s-.9.9-2 1c-1.1.1-1.8-.2-1.5-.8.9-1.3.1-1.1-1.3.3zm15 28.7c8.1 8.7 9 12.1 3.2 12.1-1.3 0-2.6.4-2.9 1-.3.5-4.2 1-8.5 1s-8.2-.5-8.5-1c-.3-.6-1.7-1-3.1-1-3.1 0-4.1-2.5-2-4.9.9-1 1.6-2.1 1.6-2.5 0-1.7 5.3-7.5 8.1-8.8 4.3-2.2 7.2-1.2 12.1 4.1zM76.5 56.3c1.1.3 2.8.6 3.8.6 2.5.1 2.1 2.4-1.4 8.1-3.4 5.5-10.1 11.8-13.6 12.6-1.3.4-2.3 1-2.3 1.5 0 1.7-1.9.9-2.5-1.1-1.5-4.8-2-7.9-2-13.7 0-7.9 1.3-9.1 9.9-8.7 3.3.1 7 .5 8.1.7zm125.2.9c2.7 3 2.6 12.4-.3 21.6-.9 3-18.4-9.9-18.4-13.5 0-.7-.3-1.3-.7-1.3-.8 0-3.5-5.1-3-5.6 1.2-1.3 9.3-3 14.4-3.1 5-.1 6.5.3 8 1.9zm-89.2 11.3c9.6 3.1 13.5 3.7 20.6 3.1 9.6-.7 14.8-1.6 15.5-2.7.3-.5 1.5-.9 2.8-.9 1.2 0 2.7-.5 3.4-1.2 1.5-1.5 2.3-.7 5.7 5.7 1.4 2.7 3.1 5.9 3.8 6.9 2.9 4.7 11.6 13.7 12.8 13.3.3-.1 1.3.6 2.3 1.5 1 1 3.8 3 6.4 4.5 7.4 4.2 7.2 3.8 5.1 9.6-1 2.8-1.9 6.2-1.9 7.4 0 1.2-.4 2.4-.9 2.7-1.2.8-1.4 16.1-.2 19.9.5 1.8 1.6 5.4 2.4 8.2.9 2.7 1.8 5.7 2.1 6.6.5 1.1-.8 2.3-5.1 4.5-3.2 1.6-6 3.1-6.3 3.4-.3.3-2.3 1.8-4.5 3.5-7.6 5.5-13.4 12.9-17.3 21.8-1.3 2.9-2.2 3.7-3.7 3.3-3.3-.7-5.8-1.3-12.8-3.1-4.5-1.1-9.1-1.5-13.9-1.2-6.6.4-9.2.9-17.8 3.2-6.8 1.8-6.7 1.9-8.6-2.2-6-12.9-15.7-22.9-28.7-29.4-2.3-1.2-4.3-2.3-4.5-2.4-.2-.2.8-4 3.9-13.3 1.3-4.2 1.3-22.5 0-25.1-.6-1.1-1.1-3-1.1-4.3 0-1.3-.4-2.8-.9-3.4-.4-.5-1.1-2.2-1.5-3.7-.6-2.4-.3-3 1.4-3.4 1.1-.3 2-.9 2-1.4 0-.5.9-.9 2-.9s2-.4 2-.9 1.4-1.4 3-2.1c1.7-.7 3-1.6 3-2.1s.6-.9 1.3-.9c2.3 0 16.7-16.7 16.7-19.4 0-.3 1-2.1 2.1-4.1 1.5-2.6 2.6-3.4 3.8-3 .9.4 3.4 1.2 5.6 2zm-65.5 45c0 .8.4 2.3.9 3.3 2 3.8 3.4 12.8 2.2 15-.6 1.1-1.1 3.3-1.1 4.7 0 3-1.6 6.5-3 6.5-.5 0-3.4-1.6-6.4-3.5-5.9-3.8-9.6-8.1-9.6-11.3 0-2.3 7.4-11.5 8.4-10.5.3.4.6.2.6-.4 0-.6 1.4-1.6 3-2.3 1.7-.7 3-1.6 3-2.1s.5-.9 1-.9c.6 0 1 .7 1 1.5zm180.1 7.6c6.3 6 5.4 10.1-3.8 17.9-4.1 3.5-6.8 4.9-7.9 4.2-2.9-2.2-4.8-20.6-2.5-25 .5-.9 1.2-2.5 1.5-3.5.6-1.7.8-1.7 4.7.5 2.3 1.3 5.9 3.9 8 5.9zM63 177.7c0 .5 1.8 1.7 4 2.7 5.2 2.5 10 7.4 13.4 13.6l2.7 5h-2.3c-1.3 0-2.9.5-3.4 1-.6.6-4.4 1.1-8.4 1.1-6.6.1-7.6-.2-9.3-2.3-1.7-2-1.9-3.3-1.3-9.4.6-7.8 2-12.4 3.6-12.4.5 0 1 .3 1 .7zm138.4 1c2.4 8.8 2.8 17 .8 20-1.3 2-2.3 2.3-8.6 2.3-3.9 0-8.8-.6-10.8-1.3l-3.6-1.3 3-5.3c3.5-6.1 7.7-10.4 13.4-13.7 4.8-2.8 5.1-2.8 5.8-.7zm-60.5 32.5c2 .7 3.9 1.7 4.3 2.2.8 1.2-6.6 12.2-9.7 14.2-3.7 2.4-8 1.4-12.2-3.1-2.1-2.2-4.1-3.9-4.5-3.8-.5.2-.8 0-.7-.5.2-1.4-1.4-5.2-2.2-5.2-.5 0-.6-.7-.3-1.5.4-.8 1.6-1.5 2.8-1.5 1.1 0 2.8-.5 3.6-1 2.1-1.4 14.7-1.2 18.9.2z"/><path d="M124.5 96.7c-1.1.2-2.7.7-3.5 1-.8.3-1.8.5-2.2.5-.5-.1-.8.2-.8.7 0 .5-.8 1.2-1.7 1.6-1.7.5-8.7 8.7-8.9 10.3 0 .4-.4 1.5-.8 2.4-.5 1-.9 2.9-1 4.3 0 1.4-.4 2.5-.7 2.5-1.1 0-.1 17.1 1.2 18.6.6.8.9 1.4.5 1.4s.1 1.5 1 3.2c1.9 3.7 8.3 10.4 9.6 10 .4-.1.8.2.8.7 0 1.1 4.6 2.7 10 3.3 1.4.2 2.9.7 3.3 1.3.6.6 1 .6 1.4-.2.3-.9 1-1 2.2-.3 1 .5 2.1.7 2.4.4.3-.3 2.4-.8 4.8-1 2.4-.3 5.1-1 6.1-1.5s1.8-.7 1.8-.4c0 .3 1-.1 2.3-1 1.8-1.2 2.2-2.5 2.2-6.5.1-4.4-.1-5-2-5-1.2 0-2.5.4-3 .9-.6.6-2.2 1.2-3.7 1.5-1.5.2-3.2.7-3.8 1.1-.5.3-1 0-1-.7 0-.8-.3-.9-.8-.3-.8 1.2-9.7 1.4-10.8.2-.4-.4-1.3-.7-2.1-.7-2.6 0-7.2-5.5-7.7-9.2-.1-.3-.4-1-.8-1.3-.4-.4-.3-1.5.2-2.4.7-1.5 3-1.7 19.3-1.5 12.7.1 18.4-.2 18.5-1 .7-4.5.6-7.3-.1-8.3-.4-.6-.4-1.4.2-1.7 1.1-.7.3-4.6-1-4.6-.5 0-.6-.6-.3-1.4.6-1.7-2.2-7.6-3.6-7.6-.6 0-.9-.4-.7-.9.1-.5-.9-1.9-2.3-3.1-2.9-2.5-8-5.4-8-4.4 0 .4-.6.2-1.2-.3-1.3-1-11.7-1.4-15.3-.6zm12.3 11.4c3.5.9 5.5 3.9 6.6 9.9.3 1.9.3 3 0 2.3-.3-.8-1.5-.9-3.5-.3-1.6.5-2.9.6-2.9.2 0-.4-1.1-.7-2.5-.7s-2.5.4-2.5.8c0 .5-.5.5-1.1.2-1.4-.9-7.9-1.2-7.9-.4 0 .4-.9.5-1.9.2-4.1-1.1 0-11 5-12 1.6-.3 3.2-.9 3.4-1.4.3-.4 1.9-.4 3.5.1 1.7.5 3.4 1 3.8 1.1z"/></svg>